<svg xmlns="http://www.w3.org/2000/svg" viewBox="0 0 66.49 72.76" fill="#fff">
  <path d="m62.12,0h.27c-8.31,14.06-16.59,28.15-24.89,42.23-1.07-6.14-2.16-12.27-3.26-18.4-.02-.2-.11-.3-.27-.3-11.33-.03-22.65.03-33.98-.02,11.28-4.3,22.58-8.53,33.86-12.82,9.43-3.53,18.83-7.14,28.26-10.68Z"/>
  <path d="m27.56,32.86c.48-.81,1.02-1.59,1.41-2.46.29.94.37,1.93.56,2.89.76,4.32,1.51,8.65,2.28,12.97.17.94.28,1.9.53,2.82,11.38.08,22.77-.02,34.15.05-5.5,2.14-11.06,4.15-16.56,6.28-14.4,5.42-28.78,10.9-43.18,16.31-.86.38-1.75.66-2.6,1.04.15-.52.48-.93.74-1.39,7.53-12.86,15.13-25.66,22.67-38.52Z"/>
</svg>
